<svg id="Layer_1" data-name="Layer 1" xmlns="http://www.w3.org/2000/svg" viewBox="0 0 1080 1080"><defs><style>.cls-1{fill:#102c38;}.cls-2{fill:#e5402c;}.cls-3{fill:#0e96a4;}.cls-4{fill:#1597a2;}.cls-5{fill:#f6a924;}.cls-6{fill:#63392b;}.cls-7{fill:#fff;}</style></defs><path class="cls-1" d="M262.37,854.08V758.19h11.28v86.58h17.71v9.31Z"/><path class="cls-1" d="M300.24,854.08V758.19h11.28v95.89Z"/><path class="cls-1" d="M343.39,855a14.39,14.39,0,0,1-12.81-6.87q-4.45-6.85-4.46-22.61V785.32a67,67,0,0,1,.9-11.47,26.84,26.84,0,0,1,3.07-8.9,14.88,14.88,0,0,1,6-5.78,20.24,20.24,0,0,1,9.56-2c4,0,7.19.69,9.57,2.05a13.34,13.34,0,0,1,5.42,5.8,27.45,27.45,0,0,1,2.45,9,102,102,0,0,1,.6,11.55V793h-10.9V780.47q0-7-1.39-10.32c-.92-2.24-2.84-3.35-5.75-3.35a6.46,6.46,0,0,0-6.43,4q-1.8,4-1.79,14.05v40.32q0,11,1.49,15.75a6.17,6.17,0,0,0,6.41,4.74c3.12,0,5.24-1.59,6.34-4.77s1.67-8.49,1.67-15.94V812.46h-7.8v-8.72h18.15v50.34h-5.94l-1.53-7.41a12.33,12.33,0,0,1-4.82,6.19A14.33,14.33,0,0,1,343.39,855Z"/><path class="cls-1" d="M373.25,854.08l14.54-95.89h13.57l15.86,95.89H406.59l-2.72-18.3H386.49L384,854.08Zm14.49-27.46h14.71L394.88,776h-.17Z"/><path class="cls-1" d="M454.7,854.08V758.19h8.5l22.23,65.27-1.14-27.73V758.19h10v95.89H486l-21.52-65.82.65,24.2v41.62Z"/><path class="cls-1" d="M527.93,855.17q-7.18,0-11.36-3.16t-5.94-9.53a60.78,60.78,0,0,1-1.77-16V784.23a56,56,0,0,1,1.64-14.38,17.55,17.55,0,0,1,5.83-9.48Q520.52,757,528.2,757a20.21,20.21,0,0,1,9.43,1.93,13.67,13.67,0,0,1,5.64,5.51A25.55,25.55,0,0,1,546,773a74.8,74.8,0,0,1,.76,11.22v42.28a62.81,62.81,0,0,1-1.71,16q-1.73,6.38-5.83,9.53C536.49,854.12,532.73,855.17,527.93,855.17Zm0-9.69a6.14,6.14,0,0,0,4.74-1.78q1.64-1.77,2.24-5.91a83.32,83.32,0,0,0,.6-11.17v-43q0-8.61-1.37-12.75t-5.94-4.14q-4.74,0-6.4,4.11t-1.66,12.72v43.1a81.66,81.66,0,0,0,.6,11.2q.6,4.11,2.29,5.88A6.45,6.45,0,0,0,527.93,845.48Z"/><path class="cls-1" d="M561.39,854.08V758.19h20.1q7.63,0,11.28,2.7a12.85,12.85,0,0,1,4.77,8.11,69.87,69.87,0,0,1,1.11,13.65q0,8.88-1.79,14.12a10.06,10.06,0,0,1-7,6.75,7.48,7.48,0,0,1,4.33,2.24,12.44,12.44,0,0,1,2.7,5.61,56.52,56.52,0,0,1,1.39,10.21q.41,6.4.41,16.1v2.67c0,1.17,0,2.44,0,3.82s.08,2.74.14,4.08.14,2.54.24,3.57a9.67,9.67,0,0,0,.44,2.26H588.36a8.09,8.09,0,0,1-.38-2.18c-.11-1.12-.21-2.61-.28-4.46s-.13-4.06-.16-6.62-.06-5.43-.06-8.61V821.77a55.81,55.81,0,0,0-.46-8.31,5.47,5.47,0,0,0-2.18-4,11.56,11.56,0,0,0-5.47-1.34l-6.71-.38v46.31Zm11.27-54.59h7.2a7.87,7.87,0,0,0,4.76-1.23c1.11-.81,1.86-2.45,2.27-4.9a74.72,74.72,0,0,0,.59-11v-.66a55.62,55.62,0,0,0-.57-9.23q-.57-3.13-2.2-4.23a9.12,9.12,0,0,0-5-1.09h-7.09Z"/><path class="cls-1" d="M612.55,854.08V758.19h18q7.51,0,11.72,3.13a16.56,16.56,0,0,1,5.88,9,50.3,50.3,0,0,1,1.69,13.94l0,42.12A53.76,53.76,0,0,1,648,842.18a16.26,16.26,0,0,1-6.27,9c-2.88,1.92-6.73,2.88-11.52,2.88Zm11.22-9.1h5.78a9,9,0,0,0,5.06-1.33q2-1.33,3-5a42.15,42.15,0,0,0,1-10.57V784q0-9-2.13-12.94a7.32,7.32,0,0,0-7-3.9h-5.78Z"/><path class="cls-1" d="M682.78,855.23q-7.08,0-11.25-2.81a15.4,15.4,0,0,1-6-8.52,49,49,0,0,1-1.8-14.44V758.19H675v71q0,5.18.38,8.88a10.4,10.4,0,0,0,2,5.67q1.63,2,5.34,2c2.51,0,4.28-.65,5.34-2a10.46,10.46,0,0,0,1.93-5.64q.36-3.68.36-8.85v-71h11.22v71.27a50.55,50.55,0,0,1-1.74,14.44,15.31,15.31,0,0,1-5.86,8.52Q689.92,855.22,682.78,855.23Z"/><path class="cls-1" d="M716.51,854.08V758.19h11.27v86.58h17.71v9.31Z"/><path class="cls-1" d="M772.63,855.23q-7.1,0-11.26-2.81a15.39,15.39,0,0,1-6-8.52,49,49,0,0,1-1.8-14.44V758.19h11.28v71q0,5.18.38,8.88a10.32,10.32,0,0,0,2,5.67c1.09,1.31,2.86,2,5.34,2s4.28-.65,5.34-2a10.54,10.54,0,0,0,1.93-5.64c.24-2.45.35-5.4.35-8.85v-71h11.23v71.27a50.16,50.16,0,0,1-1.75,14.44,15.24,15.24,0,0,1-5.85,8.52Q779.76,855.22,772.63,855.23Z"/><path class="cls-1" d="M806.35,854.08V758.19h11.28v95.89Z"/><path class="cls-1" d="M262.37,871.27h16.36v3.16h-6.6v21.43h-3.3V874.43h-6.46Z"/><path class="cls-1" d="M290.5,871.27a11.51,11.51,0,0,1,3.45.49,8.13,8.13,0,0,1,2.76,1.47,6.67,6.67,0,0,1,1.83,2.39,7.76,7.76,0,0,1,.66,3.27,9.85,9.85,0,0,1-.42,2.86,6.84,6.84,0,0,1-3.95,4.37,9.79,9.79,0,0,1-3.92.69h-3.64v9.05H284V871.27Zm.34,12.35a6,6,0,0,0,2.43-.44,4,4,0,0,0,1.51-1.14,4.53,4.53,0,0,0,.79-1.48,5.63,5.63,0,0,0,.23-1.53,4.9,4.9,0,0,0-.25-1.53,4.42,4.42,0,0,0-.82-1.48,4.09,4.09,0,0,0-1.46-1.14,4.86,4.86,0,0,0-2.19-.45h-3.81v9.19Zm4.05,1.9,6.42,10.34H297.5l-6.56-10.24Z"/><path class="cls-1" d="M303.93,895.86l10.72-25.61h.2l10.75,25.61h-3.78l-8-20.44,2.34-1.53-8.94,22Zm6.3-9.32h9.15l1.08,2.86H309.27Z"/><path class="cls-1" d="M330.23,871.27h3.29v24.59h-3.29Z"/><path class="cls-1" d="M340.6,871.27h3.3V892.7h12.48v3.16H340.6Z"/><path class="cls-1" d="M379,871.27a11.57,11.57,0,0,1,3.46.49,8,8,0,0,1,2.75,1.47,6.7,6.7,0,0,1,1.84,2.39,7.76,7.76,0,0,1,.66,3.27,9.85,9.85,0,0,1-.42,2.86,6.91,6.91,0,0,1-3.95,4.37,9.81,9.81,0,0,1-3.93.69H375.8v9.05h-3.3V871.27Zm.34,12.35a6,6,0,0,0,2.44-.44,4.07,4.07,0,0,0,1.51-1.14,4.69,4.69,0,0,0,.78-1.48,5.29,5.29,0,0,0,.24-1.53,4.92,4.92,0,0,0-.26-1.53,4.58,4.58,0,0,0-.81-1.48,4.17,4.17,0,0,0-1.46-1.14,4.93,4.93,0,0,0-2.2-.45H375.8v9.19Zm4.05,1.9,6.43,10.34H386l-6.56-10.24Z"/><path class="cls-1" d="M397.88,887.16a5.51,5.51,0,0,0,.8,3,5.72,5.72,0,0,0,2.14,2.06,6,6,0,0,0,3,.75,6.31,6.31,0,0,0,3.09-.75,5.48,5.48,0,0,0,2.13-2.06,5.76,5.76,0,0,0,.76-3V871.27h3.27v16a8.8,8.8,0,0,1-1.23,4.69,8.23,8.23,0,0,1-3.33,3.1,10.66,10.66,0,0,1-9.35,0,8.32,8.32,0,0,1-3.34-3.1,8.88,8.88,0,0,1-1.22-4.69v-16h3.3Z"/><path class="cls-1" d="M441.07,896.65l-19-19.29.95.24.07,18.26h-3.3V870.52H420l18.78,19.36-.75-.17-.07-18.44h3.3v25.38Z"/><path class="cls-1" d="M469.58,896.65l-19-19.29,1,.24.06,18.26h-3.3V870.52h.17l18.78,19.36-.75-.17-.07-18.44h3.3v25.38Z"/><path class="cls-1" d="M476.79,871.27h3.3v24.59h-3.3Z"/><path class="cls-1" d="M508.45,896.65l-19-19.29.95.24.07,18.26h-3.3V870.52h.17l18.78,19.36-.75-.17-.07-18.44h3.3v25.38Z"/><path class="cls-1" d="M534.92,893.75a5.91,5.91,0,0,1-1.43.87,16.92,16.92,0,0,1-2,.77,20.68,20.68,0,0,1-2.26.54,12.35,12.35,0,0,1-2.21.2,14.81,14.81,0,0,1-5.34-.91,12,12,0,0,1-4.06-2.56,10.73,10.73,0,0,1-2.57-3.84,12.67,12.67,0,0,1-.89-4.76,14.29,14.29,0,0,1,1-5.54,12,12,0,0,1,2.74-4.1,11.25,11.25,0,0,1,4-2.55,13.44,13.44,0,0,1,4.81-.87,15.35,15.35,0,0,1,4,.49A13.21,13.21,0,0,1,534,872.8l-1.08,3a12.52,12.52,0,0,0-1.72-.73,16.13,16.13,0,0,0-2.06-.58,9.3,9.3,0,0,0-1.94-.22,11.19,11.19,0,0,0-4,.66,8.64,8.64,0,0,0-3,1.91,8.17,8.17,0,0,0-1.95,3,10.66,10.66,0,0,0-.68,3.93,9.52,9.52,0,0,0,.68,3.65,8,8,0,0,0,1.95,2.89,8.67,8.67,0,0,0,3,1.86,11.08,11.08,0,0,0,3.88.65,12.72,12.72,0,0,0,2.45-.24,6.38,6.38,0,0,0,2.07-.75V887h-4.86v-3.2h8.2Z"/><path class="cls-1" d="M570,894a15.41,15.41,0,0,1-1.67.91,11.67,11.67,0,0,1-2.47.85,13.73,13.73,0,0,1-8.23-.68,11.5,11.5,0,0,1-6.37-6.61,13.16,13.16,0,0,1-.85-4.75,14.19,14.19,0,0,1,.88-5.08,11.66,11.66,0,0,1,6.41-6.72,12.38,12.38,0,0,1,4.88-1,13,13,0,0,1,4,.59,15.37,15.37,0,0,1,3.09,1.38l-1.32,3.13a13.38,13.38,0,0,0-2.49-1.33,8.33,8.33,0,0,0-3.2-.61,8.2,8.2,0,0,0-3.4.72,8.8,8.8,0,0,0-2.82,2,9.4,9.4,0,0,0-1.92,3,9.56,9.56,0,0,0-.7,3.7,10.59,10.59,0,0,0,.63,3.69,8.9,8.9,0,0,0,1.8,3,8.33,8.33,0,0,0,2.84,2,9.52,9.52,0,0,0,3.74.71,9,9,0,0,0,3.34-.58,10,10,0,0,0,2.41-1.29Z"/><path class="cls-1" d="M595,871.27v24.59h-3.3V885.08H578.86v10.78h-3.3V871.27h3.3v10.65h12.86V871.27Z"/><path class="cls-1" d="M599.68,895.86l10.71-25.61h.2l10.75,25.61h-3.77l-8-20.44,2.35-1.53-8.95,22Zm6.29-9.32h9.15l1.09,2.86H605Z"/><path class="cls-1" d="M626,895.86V870.49h0l12.89,18.33-1.39-.3,12.89-18h0v25.37h-3.29V878l.23,1.67-9.25,13.13H638l-9.42-13.13.55-1.53v17.75Z"/><path class="cls-1" d="M664.06,871.27a10.75,10.75,0,0,1,4.6.9,6.83,6.83,0,0,1,2.94,2.6,7.8,7.8,0,0,1,1,4.12,9.34,9.34,0,0,1-.44,2.87,7,7,0,0,1-1.41,2.55,6.88,6.88,0,0,1-2.53,1.84,9.29,9.29,0,0,1-3.81.7H660.8v9h-3.3V871.27Zm.34,12.35a5.67,5.67,0,0,0,2.42-.46,3.92,3.92,0,0,0,1.49-1.21,5.08,5.08,0,0,0,.79-1.53,5,5,0,0,0,.23-1.46,5.34,5.34,0,0,0-.23-1.55,4.1,4.1,0,0,0-.8-1.46,4.3,4.3,0,0,0-1.46-1.09,5.31,5.31,0,0,0-2.23-.43H660.8v9.19Z"/><path class="cls-1" d="M677.74,871.27H681v24.59h-3.29Z"/><path class="cls-1" d="M686.58,883.58a12.15,12.15,0,0,1,1-4.83,12.63,12.63,0,0,1,2.7-4,13,13,0,0,1,4-2.74,12.52,12.52,0,0,1,9.71,0,13.09,13.09,0,0,1,4,2.74,12.91,12.91,0,0,1,2.74,4,12.57,12.57,0,0,1,0,9.73,12.68,12.68,0,0,1-6.74,6.69,12.58,12.58,0,0,1-13.74-2.66,12.2,12.2,0,0,1-2.7-4A12.35,12.35,0,0,1,686.58,883.58Zm3.4,0a9.36,9.36,0,0,0,.7,3.66,9.16,9.16,0,0,0,2,3,9.42,9.42,0,0,0,2.93,2,9.17,9.17,0,0,0,7.17,0,9.16,9.16,0,0,0,2.89-2,9.64,9.64,0,0,0,2-10.29,10.09,10.09,0,0,0-2-3,8.84,8.84,0,0,0-2.92-2,9,9,0,0,0-3.59-.73,8.79,8.79,0,0,0-3.62.75,9.1,9.1,0,0,0-4.85,5.05A9.82,9.82,0,0,0,690,883.58Z"/><path class="cls-1" d="M738.55,896.65l-19-19.29,1,.24.07,18.26h-3.3V870.52h.17l18.77,19.36-.74-.17-.07-18.44h3.3v25.38Z"/><path class="cls-1" d="M758.48,875.66a17.16,17.16,0,0,0-2.75-1.12,9.55,9.55,0,0,0-2.93-.48,5,5,0,0,0-3.14.92,3,3,0,0,0-1.18,2.45,2.71,2.71,0,0,0,.77,2,6.53,6.53,0,0,0,2,1.38c.81.39,1.66.75,2.57,1.09a19.83,19.83,0,0,1,2.25,1,8.81,8.81,0,0,1,2,1.38,5.84,5.84,0,0,1,1.43,2,7.28,7.28,0,0,1,.52,2.93,6.74,6.74,0,0,1-1,3.57,6.66,6.66,0,0,1-2.77,2.52,9.44,9.44,0,0,1-4.32.91,13.25,13.25,0,0,1-5.81-1.32,21,21,0,0,1-2.25-1.26l1.47-2.59a13.44,13.44,0,0,0,1.86,1.11,11.38,11.38,0,0,0,2.22.83,8.51,8.51,0,0,0,2.24.31,6.73,6.73,0,0,0,2.31-.41,4.26,4.26,0,0,0,1.87-1.29,3.51,3.51,0,0,0,.75-2.35,3.25,3.25,0,0,0-.66-2.07,5.64,5.64,0,0,0-1.73-1.45,18.49,18.49,0,0,0-2.33-1.07,23.9,23.9,0,0,1-2.37-1,11.67,11.67,0,0,1-2.18-1.31,6.2,6.2,0,0,1-1.63-1.89,5.47,5.47,0,0,1-.63-2.72,6.08,6.08,0,0,1,.94-3.39,6.45,6.45,0,0,1,2.57-2.27,8.74,8.74,0,0,1,3.74-.91,14.12,14.12,0,0,1,4.2.58,15.83,15.83,0,0,1,3.21,1.4Z"/><path class="cls-1" d="M785,871.27v24.59h-3.3V885.08H768.86v10.78h-3.3V871.27h3.3v10.65h12.85V871.27Z"/><path class="cls-1" d="M792.12,871.27h3.3v24.59h-3.3Z"/><path class="cls-1" d="M809.06,871.27a10.67,10.67,0,0,1,4.59.9,6.72,6.72,0,0,1,2.94,2.6,7.71,7.71,0,0,1,1,4.12,9.66,9.66,0,0,1-.44,2.87,7.34,7.34,0,0,1-1.41,2.55,6.83,6.83,0,0,1-2.54,1.84,9.23,9.23,0,0,1-3.81.7h-3.64v9h-3.3V871.27Zm.34,12.35a5.67,5.67,0,0,0,2.42-.46,3.92,3.92,0,0,0,1.49-1.21,5.28,5.28,0,0,0,.78-1.53,5,5,0,0,0,.24-1.46,5.37,5.37,0,0,0-.24-1.55,4,4,0,0,0-.8-1.46,4.21,4.21,0,0,0-1.46-1.09,5.24,5.24,0,0,0-2.23-.43h-3.81v9.19Z"/><path class="cls-2" d="M525.44,315.49l-16.22,97.4-97.4,16.22A129,129,0,0,1,525.44,315.49Z"/><path class="cls-3" d="M525.44,571.85A129,129,0,0,1,411.82,458.23l97.4,16.22Z"/><path class="cls-4" d="M668.18,458.23A129,129,0,0,1,554.56,571.85l16.22-97.4Z"/><path class="cls-5" d="M668.18,429.11l-97.4-16.22-16.22-97.4A129,129,0,0,1,668.18,429.11Z"/><polygon class="cls-1" points="540 228.18 540 443.67 509.22 412.89 525.44 315.49 540 228.18"/><polygon class="cls-6" points="540 443.67 324.51 443.67 411.82 429.11 509.22 412.89 540 443.67"/><polygon class="cls-6" points="540 443.67 540 659.16 525.44 571.85 509.22 474.45 540 443.67"/><polygon class="cls-6" points="755.49 443.67 668.18 458.23 570.78 474.45 540 443.67 755.49 443.67"/><polygon class="cls-7" points="570.78 412.89 540 443.67 540 228.18 554.56 315.49 570.78 412.89"/><polygon class="cls-7" points="540 443.67 509.22 474.45 411.82 458.23 324.51 443.67 540 443.67"/><polygon class="cls-7" points="570.78 474.45 554.56 571.85 540 659.16 540 443.67 570.78 474.45"/><polygon class="cls-7" points="755.49 443.67 540 443.67 570.78 412.89 668.18 429.11 755.49 443.67"/><path class="cls-1" d="M554.62,219.71l-26.45-26.84,1.32.33.1,25.42H525V183.35h.24l26.13,26.94-1-.24-.1-25.65h4.59v35.31Z"/></svg>