<svg id="Layer_1" data-name="Layer 1" xmlns="http://www.w3.org/2000/svg" viewBox="0 0 1080 1080"><defs><style>.cls-1{fill:#e5402c;}.cls-2{fill:#0e96a4;}.cls-3{fill:#1597a2;}.cls-4{fill:#f6a924;}.cls-5{fill:#102c38;}.cls-6{fill:#63392b;}.cls-7{fill:#fff;}</style></defs><path class="cls-1" d="M525.44,434.23l-16.22,97.4-97.4,16.23A129,129,0,0,1,525.44,434.23Z"/><path class="cls-2" d="M525.44,690.59A129,129,0,0,1,411.82,577l97.4,16.23Z"/><path class="cls-3" d="M668.18,577A129,129,0,0,1,554.56,690.59l16.22-97.39Z"/><path class="cls-4" d="M668.18,547.86l-97.4-16.23-16.22-97.4A129,129,0,0,1,668.18,547.86Z"/><polygon class="cls-5" points="540 346.92 540 562.41 509.22 531.63 525.44 434.23 540 346.92"/><polygon class="cls-6" points="540 562.41 324.51 562.41 411.82 547.86 509.22 531.63 540 562.41"/><polygon class="cls-6" points="540 562.41 540 777.9 525.44 690.59 509.22 593.2 540 562.41"/><polygon class="cls-6" points="755.49 562.41 668.18 576.97 570.78 593.2 540 562.41 755.49 562.41"/><polygon class="cls-7" points="570.78 531.63 540 562.41 540 346.92 554.56 434.23 570.78 531.63"/><polygon class="cls-7" points="540 562.41 509.22 593.2 411.82 576.97 324.51 562.41 540 562.41"/><polygon class="cls-7" points="570.78 593.2 554.56 690.59 540 777.9 540 562.41 570.78 593.2"/><polygon class="cls-7" points="755.49 562.41 540 562.41 570.78 531.63 668.18 547.86 755.49 562.41"/><path class="cls-5" d="M554.62,338.45l-26.45-26.84,1.32.33.1,25.42H525V302.1h.24L551.36,329l-1-.24-.1-25.65h4.59v35.31Z"/></svg>